<svg xmlns="http://www.w3.org/2000/svg" xmlns:xlink="http://www.w3.org/1999/xlink" width="690" height="313.94"><rect width="690" height="313.94" rx="0" ry="0" class="a"/><svg height="303.94" viewBox="0 0 68 30.394" width="680" x="5" xmlns="http://www.w3.org/2000/svg" xmlns:xlink="http://www.w3.org/1999/xlink" y="5"><style>@keyframes f{0%{transform:translateX(-68px)}2%{transform:translateX(-136px)}2.2%{transform:translateX(-204px)}2.4%{transform:translateX(-272px)}2.6%{transform:translateX(-340px)}2.8%{transform:translateX(-408px)}3%{transform:translateX(-476px)}3.2%{transform:translateX(-544px)}3.4%{transform:translateX(-612px)}3.6%{transform:translateX(-680px)}3.8%{transform:translateX(-748px)}4%{transform:translateX(-816px)}4.2%{transform:translateX(-884px)}4.4%{transform:translateX(-952px)}4.6%{transform:translateX(-1020px)}4.8%{transform:translateX(-1088px)}5%{transform:translateX(-1156px)}5.2%{transform:translateX(-1224px)}5.4%{transform:translateX(-1292px)}5.6%{transform:translateX(-1360px)}5.8%{transform:translateX(-1428px)}6%{transform:translateX(-1496px)}6.2%{transform:translateX(-1564px)}6.4%{transform:translateX(-1632px)}6.6%{transform:translateX(-1700px)}6.8%{transform:translateX(-1768px)}7%{transform:translateX(-1836px)}7.2%{transform:translateX(-1904px)}7.4%{transform:translateX(-1972px)}7.6%{transform:translateX(-2040px)}7.8%{transform:translateX(-2108px)}8%{transform:translateX(-2176px)}8.2%{transform:translateX(-2244px)}8.4%{transform:translateX(-2312px)}8.6%{transform:translateX(-2380px)}8.8%{transform:translateX(-2448px)}9%{transform:translateX(-2516px)}12%{transform:translateX(-2924px)}24%{transform:translateX(-3604px)}36%{transform:translateX(-4080px)}48%{transform:translateX(-4760px)}60%{transform:translateX(-5168px)}72%{transform:translateX(-5508px)}84%{transform:translateX(-5644px)}86%{transform:translateX(-5780px)}to{transform:translateX(-5848px)}}.a{fill:#222}.c,.d{fill:#dcdcdc}.d{text-decoration:underline}</style><g font-size="1.67" font-family="Monaco,Consolas,Menlo,'Bitstream Vera Sans Mono','Powerline Symbols',monospace"><defs><symbol id="1"><text y="1.67" class="c">$</text><text x="2.004" y="1.67" class="c">git</text></symbol><symbol id="2"><text y="1.67" class="c">$</text><text x="2.004" y="1.67" class="c">git</text><text x="6.012" y="1.67" class="c">commit</text></symbol><symbol id="3"><text y="1.67" class="c">$</text><text x="2.004" y="1.67" class="c">git</text><text x="6.012" y="1.67" class="c">commit</text><text x="13.026" y="1.67" class="c">-m</text></symbol><symbol id="4"><text y="1.67" class="c">$</text><text x="2.004" y="1.67" class="c">git</text><text x="6.012" y="1.67" class="c">commit</text><text x="13.026" y="1.67" class="c">-m</text><text x="16.032" y="1.67" class="c">&quot;adding</text></symbol><symbol id="5"><text y="1.67" class="c">$</text><text x="2.004" y="1.67" class="c">git</text><text x="6.012" y="1.67" class="c">commit</text><text x="13.026" y="1.67" class="c">-m</text><text x="16.032" y="1.67" class="c">&quot;adding</text><text x="24.048" y="1.67" class="c">some</text></symbol><symbol id="6"><text y="1.67" class="c">$</text><text x="2.004" y="1.67" class="c">git</text><text x="6.012" y="1.67" class="c">commit</text><text x="13.026" y="1.67" class="c">-m</text><text x="16.032" y="1.67" class="c">&quot;adding</text><text x="24.048" y="1.67" class="c">some</text><text x="29.058" y="1.67" class="c">files...&quot;</text></symbol><symbol id="7"><text y="1.67" class="c">New</text><text x="4.008" y="1.67" class="c">unstaged</text><text x="13.026" y="1.67" class="c">files</text><text x="19.038" y="1.67" class="c">(</text><text x="20.04" y="1.67" class="d">s</text><text x="21.042" y="1.67" class="c">tage,</text><text x="27.054" y="1.67" class="d">o</text><text x="28.056" y="1.67" class="c">mit,</text><text x="33.066" y="1.67" class="d">e</text><text x="34.068" y="1.67" class="c">xclude,</text><text x="42.084" y="1.67" class="c">or</text><text x="45.09" y="1.67" class="c">↵</text><text x="47.094" y="1.67" class="c">to</text><text x="50.1" y="1.67" class="c">enter</text><text x="56.112" y="1.67" class="c">directory):</text></symbol><symbol id="8"><text y="1.67" class="c">a-file</text></symbol><symbol id="9"><text y="1.67" class="c">a-file</text><text x="7.014" y="1.67" class="c">staged.</text></symbol><symbol id="10"><text y="1.67" class="c">folder-with-many-files/</text></symbol><symbol id="11"><text y="1.67" class="c">folder-with-many-files/</text><text x="26.052" y="1.67" class="c">contains:</text></symbol><symbol id="12"><text y="1.67" class="c">folder-with-many-files/</text><text x="26.052" y="1.67" class="c">contains:</text><text x="36.072" y="1.67" class="c">i-lied</text><text x="43.086" y="1.67" class="c">it&apos;s-just</text><text x="53.106" y="1.67" class="c">three/files</text></symbol><symbol id="13"><text y="1.67" class="c">folder-with-many-files/</text><text x="24.048" y="1.67" class="c">staged.</text></symbol><symbol id="14"><text y="1.67" class="c">folder-with-one-file/inner-folder/file</text></symbol><symbol id="15"><text y="1.67" class="c">folder-with-one-file/inner-folder/file</text><text x="39.078" y="1.67" class="c">omitted.</text></symbol><symbol id="16"><text y="1.67" class="c">folder-with-two-files/</text></symbol><symbol id="17"><text y="1.67" class="c">folder-with-two-files/</text><text x="25.05" y="1.67" class="c">contains:</text></symbol><symbol id="18"><text y="1.67" class="c">folder-with-two-files/</text><text x="25.05" y="1.67" class="c">contains:</text><text x="35.07" y="1.67" class="c">first</text><text x="41.082" y="1.67" class="c">second</text></symbol><symbol id="19"><text y="1.67" class="c">folder-with-two-files/first</text></symbol><symbol id="20"><text y="1.67" class="c">folder-with-two-files/first</text><text x="28.056" y="1.67" class="c">staged.</text></symbol><symbol id="21"><text y="1.67" class="c">folder-with-two-files/second</text></symbol><symbol id="22"><text y="1.67" class="c">folder-with-two-files/second</text><text x="29.058" y="1.67" class="c">excluded.</text></symbol><symbol id="23"><text y="1.67" class="c">[master</text><text x="8.016" y="1.67" class="c">06e3650]</text><text x="17.034" y="1.67" class="c">adding</text><text x="24.048" y="1.67" class="c">some</text><text x="29.058" y="1.67" class="c">files...</text></symbol><symbol id="24"><text x="1.002" y="1.67" class="c">5</text><text x="3.006" y="1.67" class="c">files</text><text x="9.018" y="1.67" class="c">changed,</text><text x="18.036" y="1.67" class="c">0</text><text x="20.04" y="1.67" class="c">insertions(+),</text><text x="35.07" y="1.67" class="c">0</text><text x="37.074" y="1.67" class="c">deletions(-)</text></symbol><symbol id="25"><text x="1.002" y="1.67" class="c">create</text><text x="8.016" y="1.67" class="c">mode</text><text x="13.026" y="1.67" class="c">100644</text><text x="20.04" y="1.67" class="c">a-file</text></symbol><symbol id="26"><text x="1.002" y="1.67" class="c">create</text><text x="8.016" y="1.67" class="c">mode</text><text x="13.026" y="1.67" class="c">100644</text><text x="20.04" y="1.67" class="c">folder-with-many-files/i-lied</text></symbol><symbol id="27"><text x="1.002" y="1.67" class="c">create</text><text x="8.016" y="1.67" class="c">mode</text><text x="13.026" y="1.67" class="c">100644</text><text x="20.04" y="1.67" class="c">folder-with-many-files/it&apos;s-just</text></symbol><symbol id="28"><text x="1.002" y="1.67" class="c">create</text><text x="8.016" y="1.67" class="c">mode</text><text x="13.026" y="1.67" class="c">100644</text><text x="20.04" y="1.67" class="c">folder-with-many-files/three/files</text></symbol><symbol id="29"><text x="1.002" y="1.67" class="c">create</text><text x="8.016" y="1.67" class="c">mode</text><text x="13.026" y="1.67" class="c">100644</text><text x="20.04" y="1.67" class="c">folder-with-two-files/first</text></symbol><symbol id="a"><path fill="transparent" d="M0 0h68v15H0z"/></symbol><symbol id="b"><path class="c" d="M0 0h1.102v2.171H0z"/></symbol></defs><path class="a" d="M0 0h68v30.394H0z"/><g style="animation-duration:25s;animation-iteration-count:infinite;animation-name:f;animation-timing-function:steps(1,end)"><svg width="5916"><svg><use xlink:href="#a"/><use xlink:href="#b" x="-.004"/></svg><svg x="68"><use xlink:href="#a"/><use xlink:href="#b" x="1.996"/><text y="1.67" class="c">$</text></svg><svg x="136"><use xlink:href="#a"/><use xlink:href="#b" x="2.996"/><text y="1.67" class="c">$</text><text x="2.004" y="1.67" class="c">g</text></svg><svg x="204"><use xlink:href="#a"/><use xlink:href="#b" x="3.996"/><text y="1.67" class="c">$</text><text x="2.004" y="1.67" class="c">gi</text></svg><svg x="272"><use xlink:href="#a"/><use xlink:href="#b" x="4.996"/><use xlink:href="#1"/></svg><svg x="340"><use xlink:href="#a"/><use xlink:href="#b" x="5.996"/><use xlink:href="#1"/></svg><svg x="408"><use xlink:href="#a"/><use xlink:href="#b" x="6.996"/><text y="1.67" class="c">$</text><text x="2.004" y="1.67" class="c">git</text><text x="6.012" y="1.67" class="c">c</text></svg><svg x="476"><use xlink:href="#a"/><use xlink:href="#b" x="7.996"/><text y="1.67" class="c">$</text><text x="2.004" y="1.67" class="c">git</text><text x="6.012" y="1.67" class="c">co</text></svg><svg x="544"><use xlink:href="#a"/><use xlink:href="#b" x="8.996"/><text y="1.67" class="c">$</text><text x="2.004" y="1.67" class="c">git</text><text x="6.012" y="1.67" class="c">com</text></svg><svg x="612"><use xlink:href="#a"/><use xlink:href="#b" x="9.996"/><text y="1.67" class="c">$</text><text x="2.004" y="1.67" class="c">git</text><text x="6.012" y="1.67" class="c">comm</text></svg><svg x="680"><use xlink:href="#a"/><use xlink:href="#b" x="10.996"/><text y="1.67" class="c">$</text><text x="2.004" y="1.67" class="c">git</text><text x="6.012" y="1.67" class="c">commi</text></svg><svg x="748"><use xlink:href="#a"/><use xlink:href="#b" x="11.996"/><use xlink:href="#2"/></svg><svg x="816"><use xlink:href="#a"/><use xlink:href="#b" x="12.996"/><use xlink:href="#2"/></svg><svg x="884"><use xlink:href="#a"/><use xlink:href="#b" x="13.996"/><text y="1.67" class="c">$</text><text x="2.004" y="1.67" class="c">git</text><text x="6.012" y="1.67" class="c">commit</text><text x="13.026" y="1.67" class="c">-</text></svg><svg x="952"><use xlink:href="#a"/><use xlink:href="#b" x="14.996"/><use xlink:href="#3"/></svg><svg x="1020"><use xlink:href="#a"/><use xlink:href="#b" x="15.996"/><use xlink:href="#3"/></svg><svg x="1088"><use xlink:href="#a"/><use xlink:href="#b" x="16.996"/><text y="1.67" class="c">$</text><text x="2.004" y="1.67" class="c">git</text><text x="6.012" y="1.67" class="c">commit</text><text x="13.026" y="1.67" class="c">-m</text><text x="16.032" y="1.67" class="c">&quot;</text></svg><svg x="1156"><use xlink:href="#a"/><use xlink:href="#b" x="17.996"/><text y="1.67" class="c">$</text><text x="2.004" y="1.67" class="c">git</text><text x="6.012" y="1.67" class="c">commit</text><text x="13.026" y="1.67" class="c">-m</text><text x="16.032" y="1.67" class="c">&quot;a</text></svg><svg x="1224"><use xlink:href="#a"/><use xlink:href="#b" x="18.996"/><text y="1.67" class="c">$</text><text x="2.004" y="1.67" class="c">git</text><text x="6.012" y="1.67" class="c">commit</text><text x="13.026" y="1.67" class="c">-m</text><text x="16.032" y="1.67" class="c">&quot;ad</text></svg><svg x="1292"><use xlink:href="#a"/><use xlink:href="#b" x="19.996"/><text y="1.67" class="c">$</text><text x="2.004" y="1.67" class="c">git</text><text x="6.012" y="1.67" class="c">commit</text><text x="13.026" y="1.67" class="c">-m</text><text x="16.032" y="1.67" class="c">&quot;add</text></svg><svg x="1360"><use xlink:href="#a"/><use xlink:href="#b" x="20.996"/><text y="1.67" class="c">$</text><text x="2.004" y="1.67" class="c">git</text><text x="6.012" y="1.67" class="c">commit</text><text x="13.026" y="1.67" class="c">-m</text><text x="16.032" y="1.67" class="c">&quot;addi</text></svg><svg x="1428"><use xlink:href="#a"/><use xlink:href="#b" x="21.996"/><text y="1.67" class="c">$</text><text x="2.004" y="1.67" class="c">git</text><text x="6.012" y="1.67" class="c">commit</text><text x="13.026" y="1.67" class="c">-m</text><text x="16.032" y="1.67" class="c">&quot;addin</text></svg><svg x="1496"><use xlink:href="#a"/><use xlink:href="#b" x="22.996"/><use xlink:href="#4"/></svg><svg x="1564"><use xlink:href="#a"/><use xlink:href="#b" x="23.996"/><use xlink:href="#4"/></svg><svg x="1632"><use xlink:href="#a"/><use xlink:href="#b" x="24.996"/><text y="1.67" class="c">$</text><text x="2.004" y="1.67" class="c">git</text><text x="6.012" y="1.67" class="c">commit</text><text x="13.026" y="1.67" class="c">-m</text><text x="16.032" y="1.67" class="c">&quot;adding</text><text x="24.048" y="1.67" class="c">s</text></svg><svg x="1700"><use xlink:href="#a"/><use xlink:href="#b" x="25.996"/><text y="1.67" class="c">$</text><text x="2.004" y="1.67" class="c">git</text><text x="6.012" y="1.67" class="c">commit</text><text x="13.026" y="1.67" class="c">-m</text><text x="16.032" y="1.67" class="c">&quot;adding</text><text x="24.048" y="1.67" class="c">so</text></svg><svg x="1768"><use xlink:href="#a"/><use xlink:href="#b" x="26.996"/><text y="1.67" class="c">$</text><text x="2.004" y="1.67" class="c">git</text><text x="6.012" y="1.67" class="c">commit</text><text x="13.026" y="1.67" class="c">-m</text><text x="16.032" y="1.67" class="c">&quot;adding</text><text x="24.048" y="1.67" class="c">som</text></svg><svg x="1836"><use xlink:href="#a"/><use xlink:href="#b" x="27.996"/><use xlink:href="#5"/></svg><svg x="1904"><use xlink:href="#a"/><use xlink:href="#b" x="28.996"/><use xlink:href="#5"/></svg><svg x="1972"><use xlink:href="#a"/><use xlink:href="#b" x="29.996"/><text y="1.67" class="c">$</text><text x="2.004" y="1.67" class="c">git</text><text x="6.012" y="1.67" class="c">commit</text><text x="13.026" y="1.67" class="c">-m</text><text x="16.032" y="1.67" class="c">&quot;adding</text><text x="24.048" y="1.67" class="c">some</text><text x="29.058" y="1.67" class="c">f</text></svg><svg x="2040"><use xlink:href="#a"/><use xlink:href="#b" x="30.996"/><text y="1.67" class="c">$</text><text x="2.004" y="1.67" class="c">git</text><text x="6.012" y="1.67" class="c">commit</text><text x="13.026" y="1.67" class="c">-m</text><text x="16.032" y="1.67" class="c">&quot;adding</text><text x="24.048" y="1.67" class="c">some</text><text x="29.058" y="1.67" class="c">fi</text></svg><svg x="2108"><use xlink:href="#a"/><use xlink:href="#b" x="31.996"/><text y="1.67" class="c">$</text><text x="2.004" y="1.67" class="c">git</text><text x="6.012" y="1.67" class="c">commit</text><text x="13.026" y="1.67" class="c">-m</text><text x="16.032" y="1.67" class="c">&quot;adding</text><text x="24.048" y="1.67" class="c">some</text><text x="29.058" y="1.67" class="c">fil</text></svg><svg x="2176"><use xlink:href="#a"/><use xlink:href="#b" x="32.996"/><text y="1.67" class="c">$</text><text x="2.004" y="1.67" class="c">git</text><text x="6.012" y="1.67" class="c">commit</text><text x="13.026" y="1.67" class="c">-m</text><text x="16.032" y="1.67" class="c">&quot;adding</text><text x="24.048" y="1.67" class="c">some</text><text x="29.058" y="1.67" class="c">file</text></svg><svg x="2244"><use xlink:href="#a"/><use xlink:href="#b" x="33.996"/><text y="1.67" class="c">$</text><text x="2.004" y="1.67" class="c">git</text><text x="6.012" y="1.67" class="c">commit</text><text x="13.026" y="1.67" class="c">-m</text><text x="16.032" y="1.67" class="c">&quot;adding</text><text x="24.048" y="1.67" class="c">some</text><text x="29.058" y="1.67" class="c">files</text></svg><svg x="2312"><use xlink:href="#a"/><use xlink:href="#b" x="34.996"/><text y="1.67" class="c">$</text><text x="2.004" y="1.67" class="c">git</text><text x="6.012" y="1.67" class="c">commit</text><text x="13.026" y="1.67" class="c">-m</text><text x="16.032" y="1.67" class="c">&quot;adding</text><text x="24.048" y="1.67" class="c">some</text><text x="29.058" y="1.67" class="c">files.</text></svg><svg x="2380"><use xlink:href="#a"/><use xlink:href="#b" x="35.996"/><text y="1.67" class="c">$</text><text x="2.004" y="1.67" class="c">git</text><text x="6.012" y="1.67" class="c">commit</text><text x="13.026" y="1.67" class="c">-m</text><text x="16.032" y="1.67" class="c">&quot;adding</text><text x="24.048" y="1.67" class="c">some</text><text x="29.058" y="1.67" class="c">files..</text></svg><svg x="2448"><use xlink:href="#a"/><use xlink:href="#b" x="36.996"/><text y="1.67" class="c">$</text><text x="2.004" y="1.67" class="c">git</text><text x="6.012" y="1.67" class="c">commit</text><text x="13.026" y="1.67" class="c">-m</text><text x="16.032" y="1.67" class="c">&quot;adding</text><text x="24.048" y="1.67" class="c">some</text><text x="29.058" y="1.67" class="c">files...</text></svg><svg x="2516"><use xlink:href="#a"/><use xlink:href="#b" x="37.996"/><use xlink:href="#6"/></svg><svg x="2584"><use xlink:href="#a"/><use xlink:href="#b" x="-.004" y="2.146"/><use xlink:href="#6"/></svg><svg x="2652"><use xlink:href="#a"/><use xlink:href="#b" x="-.004" y="4.317"/><use xlink:href="#6"/><use xlink:href="#7" y="2.171"/></svg><svg x="2720"><use xlink:href="#a"/><use xlink:href="#b" x="-.004" y="4.317"/><use xlink:href="#6"/><use xlink:href="#7" y="2.171"/></svg><svg x="2788"><use xlink:href="#a"/><use xlink:href="#b" x="5.996" y="4.317"/><use xlink:href="#6"/><use xlink:href="#7" y="2.171"/><use xlink:href="#8" y="4.342"/></svg><svg x="2856"><use xlink:href="#a"/><use xlink:href="#b" x="6.996" y="4.317"/><use xlink:href="#6"/><use xlink:href="#7" y="2.171"/><use xlink:href="#8" y="4.342"/></svg><svg x="2924"><use xlink:href="#a"/><use xlink:href="#b" x="6.996" y="4.317"/><use xlink:href="#6"/><use xlink:href="#7" y="2.171"/><use xlink:href="#8" y="4.342"/></svg><svg x="2992"><use xlink:href="#a"/><use xlink:href="#b" x="6.996" y="4.317"/><use xlink:href="#6"/><use xlink:href="#7" y="2.171"/><use xlink:href="#8" y="4.342"/></svg><svg x="3060"><use xlink:href="#a"/><use xlink:href="#b" x="-.004" y="6.488"/><use xlink:href="#6"/><use xlink:href="#7" y="2.171"/><use xlink:href="#9" y="4.342"/></svg><svg x="3128"><use xlink:href="#a"/><use xlink:href="#b" x="-.004" y="6.488"/><use xlink:href="#6"/><use xlink:href="#7" y="2.171"/><use xlink:href="#9" y="4.342"/></svg><svg x="3196"><use xlink:href="#a"/><use xlink:href="#b" x="22.996" y="6.488"/><use xlink:href="#6"/><use xlink:href="#7" y="2.171"/><use xlink:href="#9" y="4.342"/><use xlink:href="#10" y="6.513"/></svg><svg x="3264"><use xlink:href="#a"/><use xlink:href="#b" x="23.996" y="6.488"/><use xlink:href="#6"/><use xlink:href="#7" y="2.171"/><use xlink:href="#9" y="4.342"/><use xlink:href="#10" y="6.513"/></svg><svg x="3332"><use xlink:href="#a"/><use xlink:href="#b" x="23.996" y="6.488"/><use xlink:href="#6"/><use xlink:href="#7" y="2.171"/><use xlink:href="#9" y="4.342"/><use xlink:href="#10" y="6.513"/></svg><svg x="3400"><use xlink:href="#a"/><use xlink:href="#b" x="35.996" y="6.488"/><use xlink:href="#6"/><use xlink:href="#7" y="2.171"/><use xlink:href="#9" y="4.342"/><use xlink:href="#11" y="6.513"/></svg><svg x="3468"><use xlink:href="#a"/><use xlink:href="#b" x="35.996" y="6.488"/><use xlink:href="#6"/><use xlink:href="#7" y="2.171"/><use xlink:href="#9" y="4.342"/><use xlink:href="#11" y="6.513"/></svg><svg x="3536"><use xlink:href="#a"/><use xlink:href="#b" x="64.996" y="6.488"/><use xlink:href="#6"/><use xlink:href="#7" y="2.171"/><use xlink:href="#9" y="4.342"/><use xlink:href="#12" y="6.513"/></svg><svg x="3604"><use xlink:href="#a"/><use xlink:href="#b" x="23.996" y="6.488"/><use xlink:href="#6"/><use xlink:href="#7" y="2.171"/><use xlink:href="#9" y="4.342"/><use xlink:href="#12" y="6.513"/></svg><svg x="3672"><use xlink:href="#a"/><use xlink:href="#b" x="23.996" y="6.488"/><use xlink:href="#6"/><use xlink:href="#7" y="2.171"/><use xlink:href="#9" y="4.342"/><use xlink:href="#10" y="6.513"/></svg><svg x="3740"><use xlink:href="#a"/><use xlink:href="#b" x="30.996" y="6.488"/><use xlink:href="#6"/><use xlink:href="#7" y="2.171"/><use xlink:href="#9" y="4.342"/><use xlink:href="#13" y="6.513"/></svg><svg x="3808"><use xlink:href="#a"/><use xlink:href="#b" x="-.004" y="8.659"/><use xlink:href="#6"/><use xlink:href="#7" y="2.171"/><use xlink:href="#9" y="4.342"/><use xlink:href="#13" y="6.513"/></svg><svg x="3876"><use xlink:href="#a"/><use xlink:href="#b" x="-.004" y="8.659"/><use xlink:href="#6"/><use xlink:href="#7" y="2.171"/><use xlink:href="#9" y="4.342"/><use xlink:href="#13" y="6.513"/></svg><svg x="3944"><use xlink:href="#a"/><use xlink:href="#b" x="37.996" y="8.659"/><use xlink:href="#6"/><use xlink:href="#7" y="2.171"/><use xlink:href="#9" y="4.342"/><use xlink:href="#13" y="6.513"/><use xlink:href="#14" y="8.684"/></svg><svg x="4012"><use xlink:href="#a"/><use xlink:href="#b" x="38.996" y="8.659"/><use xlink:href="#6"/><use xlink:href="#7" y="2.171"/><use xlink:href="#9" y="4.342"/><use xlink:href="#13" y="6.513"/><use xlink:href="#14" y="8.684"/></svg><svg x="4080"><use xlink:href="#a"/><use xlink:href="#b" x="38.996" y="8.659"/><use xlink:href="#6"/><use xlink:href="#7" y="2.171"/><use xlink:href="#9" y="4.342"/><use xlink:href="#13" y="6.513"/><use xlink:href="#14" y="8.684"/></svg><svg x="4148"><use xlink:href="#a"/><use xlink:href="#b" x="38.996" y="8.659"/><use xlink:href="#6"/><use xlink:href="#7" y="2.171"/><use xlink:href="#9" y="4.342"/><use xlink:href="#13" y="6.513"/><use xlink:href="#14" y="8.684"/></svg><svg x="4216"><use xlink:href="#a"/><use xlink:href="#b" x="-.004" y="10.83"/><use xlink:href="#6"/><use xlink:href="#7" y="2.171"/><use xlink:href="#9" y="4.342"/><use xlink:href="#13" y="6.513"/><use xlink:href="#15" y="8.684"/></svg><svg x="4284"><use xlink:href="#a"/><use xlink:href="#b" x="21.996" y="10.83"/><use xlink:href="#6"/><use xlink:href="#7" y="2.171"/><use xlink:href="#9" y="4.342"/><use xlink:href="#13" y="6.513"/><use xlink:href="#15" y="8.684"/><use xlink:href="#16" y="10.855"/></svg><svg x="4352"><use xlink:href="#a"/><use xlink:href="#b" x="22.996" y="10.83"/><use xlink:href="#6"/><use xlink:href="#7" y="2.171"/><use xlink:href="#9" y="4.342"/><use xlink:href="#13" y="6.513"/><use xlink:href="#15" y="8.684"/><use xlink:href="#16" y="10.855"/></svg><svg x="4420"><use xlink:href="#a"/><use xlink:href="#b" x="22.996" y="10.83"/><use xlink:href="#6"/><use xlink:href="#7" y="2.171"/><use xlink:href="#9" y="4.342"/><use xlink:href="#13" y="6.513"/><use xlink:href="#15" y="8.684"/><use xlink:href="#16" y="10.855"/></svg><svg x="4488"><use xlink:href="#a"/><use xlink:href="#b" x="22.996" y="10.83"/><use xlink:href="#6"/><use xlink:href="#7" y="2.171"/><use xlink:href="#9" y="4.342"/><use xlink:href="#13" y="6.513"/><use xlink:href="#15" y="8.684"/><use xlink:href="#16" y="10.855"/></svg><svg x="4556"><use xlink:href="#a"/><use xlink:href="#b" x="34.996" y="10.83"/><use xlink:href="#6"/><use xlink:href="#7" y="2.171"/><use xlink:href="#9" y="4.342"/><use xlink:href="#13" y="6.513"/><use xlink:href="#15" y="8.684"/><use xlink:href="#17" y="10.855"/></svg><svg x="4624"><use xlink:href="#a"/><use xlink:href="#b" x="34.996" y="10.83"/><use xlink:href="#6"/><use xlink:href="#7" y="2.171"/><use xlink:href="#9" y="4.342"/><use xlink:href="#13" y="6.513"/><use xlink:href="#15" y="8.684"/><use xlink:href="#17" y="10.855"/></svg><svg x="4692"><use xlink:href="#a"/><use xlink:href="#b" x="47.996" y="10.83"/><use xlink:href="#6"/><use xlink:href="#7" y="2.171"/><use xlink:href="#9" y="4.342"/><use xlink:href="#13" y="6.513"/><use xlink:href="#15" y="8.684"/><use xlink:href="#18" y="10.855"/></svg><svg x="4760"><use xlink:href="#a"/><use xlink:href="#b" x="22.996" y="10.83"/><use xlink:href="#6"/><use xlink:href="#7" y="2.171"/><use xlink:href="#9" y="4.342"/><use xlink:href="#13" y="6.513"/><use xlink:href="#15" y="8.684"/><use xlink:href="#18" y="10.855"/></svg><svg x="4828"><use xlink:href="#a"/><use xlink:href="#b" x="22.996" y="10.83"/><use xlink:href="#6"/><use xlink:href="#7" y="2.171"/><use xlink:href="#9" y="4.342"/><use xlink:href="#13" y="6.513"/><use xlink:href="#15" y="8.684"/><use xlink:href="#16" y="10.855"/></svg><svg x="4896"><use xlink:href="#a"/><use xlink:href="#6"/><use xlink:href="#7" y="2.171"/><use xlink:href="#9" y="4.342"/><use xlink:href="#13" y="6.513"/><use xlink:href="#15" y="8.684"/><use xlink:href="#16" y="10.855"/></svg><svg x="4964"><use xlink:href="#a"/><use xlink:href="#6"/><use xlink:href="#7" y="2.171"/><use xlink:href="#9" y="4.342"/><use xlink:href="#13" y="6.513"/><use xlink:href="#15" y="8.684"/><use xlink:href="#16" y="10.855"/></svg><svg x="5032"><use xlink:href="#a"/><use xlink:href="#6"/><use xlink:href="#7" y="2.171"/><use xlink:href="#9" y="4.342"/><use xlink:href="#13" y="6.513"/><use xlink:href="#15" y="8.684"/><use xlink:href="#19" y="10.855"/></svg><svg x="5100"><use xlink:href="#a"/><use xlink:href="#6"/><use xlink:href="#7" y="2.171"/><use xlink:href="#9" y="4.342"/><use xlink:href="#13" y="6.513"/><use xlink:href="#15" y="8.684"/><use xlink:href="#19" y="10.855"/></svg><svg x="5168"><use xlink:href="#a"/><use xlink:href="#b" x="27.996" y="10.83"/><use xlink:href="#6"/><use xlink:href="#7" y="2.171"/><use xlink:href="#9" y="4.342"/><use xlink:href="#13" y="6.513"/><use xlink:href="#15" y="8.684"/><use xlink:href="#19" y="10.855"/></svg><svg x="5236"><use xlink:href="#a"/><use xlink:href="#b" x="27.996" y="10.83"/><use xlink:href="#6"/><use xlink:href="#7" y="2.171"/><use xlink:href="#9" y="4.342"/><use xlink:href="#13" y="6.513"/><use xlink:href="#15" y="8.684"/><use xlink:href="#19" y="10.855"/></svg><svg x="5304"><use xlink:href="#a"/><use xlink:href="#b" x="-.004" y="13.001"/><use xlink:href="#6"/><use xlink:href="#7" y="2.171"/><use xlink:href="#9" y="4.342"/><use xlink:href="#13" y="6.513"/><use xlink:href="#15" y="8.684"/><use xlink:href="#20" y="10.855"/></svg><svg x="5372"><use xlink:href="#a"/><use xlink:href="#b" x="27.996" y="13.001"/><use xlink:href="#6"/><use xlink:href="#7" y="2.171"/><use xlink:href="#9" y="4.342"/><use xlink:href="#13" y="6.513"/><use xlink:href="#15" y="8.684"/><use xlink:href="#20" y="10.855"/><use xlink:href="#21" y="13.026"/></svg><svg x="5440"><use xlink:href="#a"/><use xlink:href="#b" x="28.996" y="13.001"/><use xlink:href="#6"/><use xlink:href="#7" y="2.171"/><use xlink:href="#9" y="4.342"/><use xlink:href="#13" y="6.513"/><use xlink:href="#15" y="8.684"/><use xlink:href="#20" y="10.855"/><use xlink:href="#21" y="13.026"/></svg><svg x="5508"><use xlink:href="#a"/><use xlink:href="#b" x="28.996" y="13.001"/><use xlink:href="#6"/><use xlink:href="#7" y="2.171"/><use xlink:href="#9" y="4.342"/><use xlink:href="#13" y="6.513"/><use xlink:href="#15" y="8.684"/><use xlink:href="#20" y="10.855"/><use xlink:href="#21" y="13.026"/></svg><svg x="5576"><use xlink:href="#a"/><use xlink:href="#b" x="28.996" y="13.001"/><use xlink:href="#6"/><use xlink:href="#7" y="2.171"/><use xlink:href="#9" y="4.342"/><use xlink:href="#13" y="6.513"/><use xlink:href="#15" y="8.684"/><use xlink:href="#20" y="10.855"/><use xlink:href="#21" y="13.026"/></svg><svg x="5644"><use xlink:href="#a"/><use xlink:href="#b" x="-.004" y="15.172"/><use xlink:href="#6"/><use xlink:href="#7" y="2.171"/><use xlink:href="#9" y="4.342"/><use xlink:href="#13" y="6.513"/><use xlink:href="#15" y="8.684"/><use xlink:href="#20" y="10.855"/><use xlink:href="#22" y="13.026"/></svg><svg x="5712"><use xlink:href="#a"/><use xlink:href="#b" x="-.004" y="17.343"/><use xlink:href="#6"/><use xlink:href="#7" y="2.171"/><use xlink:href="#9" y="4.342"/><use xlink:href="#13" y="6.513"/><use xlink:href="#15" y="8.684"/><use xlink:href="#20" y="10.855"/><use xlink:href="#22" y="13.026"/><use xlink:href="#23" y="15.197"/></svg><svg x="5780"><use xlink:href="#a"/><use xlink:href="#b" x="-.004" y="30.369"/><use xlink:href="#6"/><use xlink:href="#7" y="2.171"/><use xlink:href="#9" y="4.342"/><use xlink:href="#13" y="6.513"/><use xlink:href="#15" y="8.684"/><use xlink:href="#20" y="10.855"/><use xlink:href="#22" y="13.026"/><use xlink:href="#23" y="15.197"/><use xlink:href="#24" y="17.368"/><use xlink:href="#25" y="19.539"/><use xlink:href="#26" y="21.71"/><use xlink:href="#27" y="23.881"/><use xlink:href="#28" y="26.052"/><use xlink:href="#29" y="28.223"/></svg><svg x="5848"><use xlink:href="#a"/><use xlink:href="#b" x="-.004" y="30.369"/><use xlink:href="#6"/><use xlink:href="#7" y="2.171"/><use xlink:href="#9" y="4.342"/><use xlink:href="#13" y="6.513"/><use xlink:href="#15" y="8.684"/><use xlink:href="#20" y="10.855"/><use xlink:href="#22" y="13.026"/><use xlink:href="#23" y="15.197"/><use xlink:href="#24" y="17.368"/><use xlink:href="#25" y="19.539"/><use xlink:href="#26" y="21.71"/><use xlink:href="#27" y="23.881"/><use xlink:href="#28" y="26.052"/><use xlink:href="#29" y="28.223"/></svg></svg></g></g></svg></svg>